# xmcd CD database file
#
# Track frame offsets:
#	150
#	29385
#	61746
#	79948
#	97267
#	120025
#	136320
#	151911
#	164890
#	183432
#
# Disc length: 2816 seconds
#
# Revision: 1
# Processed by: cddbd v1.4PL0 Copyright (c) Steve Scherf et al.
# Submitted via: CDex 1.50
#
DISCID=7e0afe0a
DTITLE=Ikuko Shinada - Particles
DYEAR=2003
DGENRE=Jazz
TTITLE0=Particles
TTITLE1=Love For Sale
TTITLE2=Down By The Riverside
TTITLE3=Day In Day Out
TTITLE4=Everytime We Say Goodbye
TTITLE5=Moondance
TTITLE6=Nice Work If You Can Get It
TTITLE7=My Funny Valentine
TTITLE8=Afro Blue
TTITLE9=Blamee It On My Youth
EXTD=YEAR: 2003
EXTT0=
EXTT1=
EXTT2=
EXTT3=
EXTT4=
EXTT5=
EXTT6=
EXTT7=
EXTT8=
EXTT9=
PLAYORDER=
